<svg width="20" height="21" viewBox="0 0 20 21" fill="none" xmlns="http://www.w3.org/2000/svg">
<path d="M16.6666 9.94438H10.5555V3.83327C10.5555 3.52644 10.3068 3.27771 9.99993 3.27771C9.69311 3.27771 9.44438 3.52644 9.44438 3.83327V9.94438H3.33326C3.02644 9.94438 2.77771 10.1931 2.77771 10.4999C2.77216 10.646 2.83012 10.7873 2.93664 10.8875C3.04316 10.9876 3.1878 11.0367 3.33326 11.0222H9.44438V17.1666C9.44438 17.4734 9.69311 17.7222 9.99993 17.7222C10.3068 17.7222 10.5555 17.4734 10.5555 17.1666V11.0555H16.6666C16.9734 11.0555 17.2222 10.8068 17.2222 10.4999C17.2222 10.1931 16.9734 9.94438 16.6666 9.94438Z" fill="#3E5D93"/>
</svg>
