<svg width="20" height="20" viewBox="0 0 20 20" fill="none" xmlns="http://www.w3.org/2000/svg">
<path fill-rule="evenodd" clip-rule="evenodd" d="M9.90794 12.1281C10.1164 12.2147 10.2518 12.4188 10.2505 12.6445C10.2484 12.7937 10.1863 12.9359 10.0782 13.0389L6.66712 16.4333L3.25601 13.0389C3.11509 12.899 3.05952 12.6945 3.11025 12.5025C3.16097 12.3105 3.31027 12.1601 3.50191 12.108C3.69355 12.056 3.89842 12.1101 4.03934 12.25L6.11157 14.3111L6.11157 4.37779C6.11157 4.07097 6.3603 3.82224 6.66712 3.82224C6.97395 3.82224 7.22268 4.07097 7.22268 4.37779L7.22268 14.3111L9.30046 12.25C9.45939 12.0898 9.69949 12.0416 9.90794 12.1281ZM10.4106 7.77223C10.1943 7.55285 10.1968 7.19966 10.4162 6.98334L13.844 3.59445L17.2384 6.9889C17.3793 7.12883 17.4349 7.33331 17.3842 7.52532C17.3334 7.71732 17.1841 7.86768 16.9925 7.91976C16.8009 7.97184 16.596 7.91772 16.4551 7.77779L14.3995 5.71112V15.65C14.3995 15.9568 14.1508 16.2056 13.844 16.2056C13.5371 16.2056 13.2884 15.9568 13.2884 15.65V5.71112L11.1995 7.77779C10.9801 7.9941 10.6269 7.99161 10.4106 7.77223Z" fill="#3E5D93"/>
</svg>
