<svg width="21" height="21" viewBox="0 0 21 21" fill="none" xmlns="http://www.w3.org/2000/svg">
<path d="M17.6788 4.0332C18.1538 4.0332 18.5122 4.44987 18.3205 5.22487L15.9955 16.1832C15.833 16.9624 15.3622 17.1499 14.7122 16.7874L9.16634 12.6915C9.14483 12.6761 9.12731 12.6558 9.11522 12.6322C9.10314 12.6087 9.09683 12.5826 9.09683 12.5561C9.09683 12.5297 9.10314 12.5036 9.11522 12.48C9.12731 12.4565 9.14483 12.4361 9.16634 12.4207L15.5705 6.63737C15.8622 6.37904 15.508 6.25404 15.1247 6.48737L7.08717 11.5582C7.06279 11.5741 7.03512 11.5842 7.00624 11.5878C6.97736 11.5915 6.94804 11.5884 6.9205 11.579L3.508 10.4999C2.74967 10.279 2.74967 9.7582 3.67884 9.38737L17.333 4.1207C17.4413 4.06875 17.5589 4.039 17.6788 4.0332Z" stroke="white" stroke-linecap="round" stroke-linejoin="round"/>
</svg>
