<svg width="21" height="21" viewBox="0 0 21 21" fill="none" xmlns="http://www.w3.org/2000/svg">
<g clip-path="url(#clip0_440_817)">
<path d="M10.6654 1.5415C9.10922 1.54318 7.5803 1.9498 6.22893 2.72141C4.87756 3.49301 3.75026 4.60303 2.95786 5.94232C2.16547 7.28161 1.73527 8.80406 1.70955 10.36C1.68384 11.9159 2.0635 13.4518 2.8112 14.8165L1.70703 19.4582L6.3487 18.354C7.54589 19.0107 8.87736 19.3851 10.2414 19.4485C11.6054 19.5119 12.9659 19.2626 14.2188 18.7198C15.4717 18.1769 16.584 17.3548 17.4706 16.3162C18.3571 15.2777 18.9946 14.0502 19.3342 12.7277C19.6737 11.4051 19.7065 10.0223 19.4299 8.68516C19.1533 7.34798 18.5746 6.09173 17.7382 5.0124C16.9018 3.93307 15.8297 3.05924 14.6038 2.45767C13.378 1.85611 12.0309 1.54274 10.6654 1.5415ZM6.1862 5.61234H8.62787C8.73837 5.61234 8.84435 5.65624 8.92249 5.73438C9.00063 5.81252 9.04453 5.9185 9.04453 6.029C9.03086 6.58467 9.12423 7.13778 9.31953 7.65817C9.40364 7.83237 9.42213 8.03105 9.37162 8.21779C9.32111 8.40452 9.20499 8.56679 9.04453 8.67484L8.19036 9.50817C8.5691 10.2478 9.06431 10.9217 9.65703 11.504C10.2347 12.1064 10.9058 12.6115 11.6445 12.9998L12.4779 12.1457C12.8945 11.729 13.0862 11.729 13.4945 11.8707C14.0149 12.066 14.568 12.1593 15.1237 12.1457C15.2326 12.1507 15.3356 12.1963 15.4127 12.2733C15.4898 12.3504 15.5353 12.4535 15.5404 12.5623V15.004C15.5353 15.1129 15.4898 15.2159 15.4127 15.293C15.3356 15.3701 15.2326 15.4156 15.1237 15.4207C12.6727 15.3139 10.3494 14.2978 8.60703 12.5707C6.87719 10.8302 5.86063 8.50574 5.75703 6.054C5.75802 5.93932 5.80318 5.82942 5.8831 5.74717C5.96303 5.66491 6.07159 5.61662 6.1862 5.61234Z" stroke="white" stroke-linecap="round" stroke-linejoin="round"/>
</g>
<defs>
<clipPath id="clip0_440_817">
<rect width="20" height="20" fill="white" transform="translate(0.666016 0.5)"/>
</clipPath>
</defs>
</svg>
