<svg width="21" height="21" viewBox="0 0 21 21" fill="none" xmlns="http://www.w3.org/2000/svg">
<path d="M18.6288 6.49728C18.5338 6.14448 18.3479 5.8228 18.0895 5.56446C17.8312 5.30611 17.5095 5.12015 17.1567 5.0252C16.1925 4.6527 6.85172 4.4702 4.14172 5.03562C3.78886 5.1306 3.46715 5.31662 3.2088 5.57505C2.95045 5.83347 2.76452 6.15524 2.66963 6.50812C2.23422 8.4177 2.2013 12.546 2.68047 14.4985C2.77542 14.8513 2.96137 15.173 3.21972 15.4314C3.47807 15.6897 3.79975 15.8757 4.15255 15.9706C6.06213 16.4102 15.1405 16.4719 17.1675 15.9706C17.5204 15.8757 17.842 15.6897 18.1004 15.4314C18.3587 15.173 18.5447 14.8513 18.6396 14.4985C19.1038 12.4181 19.1367 8.54562 18.6288 6.49728Z" stroke="white" stroke-linecap="round" stroke-linejoin="round"/>
<path d="M13.4017 10.4977L9.04883 8.00146V12.994L13.4017 10.4977Z" stroke="white" stroke-linecap="round" stroke-linejoin="round"/>
</svg>
